<?xml version="1.0" encoding="UTF-8"?>
<svg width="176px" height="20px" viewBox="0 0 176 20" version="1.1" xmlns="http://www.w3.org/2000/svg" xmlns:xlink="http://www.w3.org/1999/xlink">
    <title>lostmary_logo</title>
    <g id="lostmary_logo" stroke="none" stroke-width="1" fill="none" fill-rule="evenodd">
        <g id="左右结构" fill="#8733FF" fill-rule="nonzero">
            <polygon id="路径" points="15.9967901 19.9994821 0 19.9994821 0 0 4.57132527 0 4.57132527 15.4281571 17.1423403 15.4281571"></polygon>
            <path d="M38.2847832,9.99974106 C38.2847832,12.761594 37.3085809,15.1189829 35.356174,17.0713897 C33.4032491,19.0243145 31.046378,20 28.2850427,20 C25.5237075,20 23.1658006,19.0243145 21.2133937,17.0713897 C19.2609867,15.1189829 18.2847832,12.7621119 18.2847832,9.99974106 C18.2847832,7.23737021 19.2604688,4.881535 21.2133937,2.92861027 C23.1663185,0.976203423 25.5231896,0 28.2855606,0 C31.0479316,0 33.403767,0.976203423 35.3566918,2.92861027 C37.3090988,4.881535 38.2853023,7.23840597 38.2853023,9.99974106 L38.2847832,9.99974106 Z M33.7134591,9.99974106 C33.7134591,8.49530024 33.1847038,7.21406562 32.1277111,6.15707294 C31.0702005,5.10008027 29.7894837,4.571325 28.2850427,4.571325 C26.7806018,4.571325 25.5231896,5.10008027 24.4563572,6.15707294 C23.3900426,7.21406562 22.8566264,8.49530024 22.8566264,9.99974106 C22.8566264,11.5041819 23.3900426,12.7854165 24.4563572,13.8424092 C25.5231896,14.8999197 26.7997634,15.4281571 28.2850427,15.4281571 C29.7703221,15.4281571 31.0702005,14.8994018 32.1277111,13.8424092 C33.1847038,12.7854165 33.7134591,11.5046998 33.7134591,9.99974106 Z" id="形状"></path>
            <path d="M57.9983981,13.8563919 C57.9983981,15.5519304 57.3981753,16.9994044 56.1982478,18.1993319 C54.9983202,19.3992594 53.5503282,19.9994821 51.8553075,19.9994821 L39.4272273,19.9994821 L40.5950463,15.4281571 L51.8553075,15.4281571 C52.2934338,15.4281571 52.6647537,15.2759005 52.9697849,14.9708693 C53.2742982,14.6663559 53.4270728,14.2950361 53.4270728,13.8563919 C53.4270728,13.4177477 53.2742982,13.0474637 52.9697849,12.7419146 C52.6647537,12.4379192 52.2934338,12.2851446 51.8553075,12.2851446 L45.5698,12.2851446 C43.8742614,12.2851446 42.4273052,11.6849219 41.2273776,10.4849944 C40.02745,9.28506694 39.4272273,7.83759289 39.4272273,6.14205443 C39.4272273,4.44651596 40.02745,2.99904192 41.2273776,1.79963231 C42.4273052,0.599704809 43.8747793,0 45.5698,0 L57.9983981,0 L55.9983462,4.571325 L45.5698,4.571325 C45.1316737,4.571325 44.7598359,4.72409954 44.4558405,5.02809498 C44.1508093,5.33312618 43.9985526,5.704446 43.9985526,6.14257231 C43.9985526,6.58069862 44.1508093,6.95253632 44.4558405,7.25704964 C44.7603538,7.56208084 45.1316737,7.7143375 45.5698,7.7143375 L51.8553075,7.7143375 C53.5503282,7.7143375 54.9983202,8.31404231 56.1982478,9.51448769 C57.3981753,10.7144152 57.9983981,12.1624071 57.9983981,13.8569098 L57.9983981,13.8563919 Z" id="路径"></path>
            <polygon id="路径" points="77.7120117 0 75.7119598 4.571325 70.71183 4.571325 70.71183 19.9994821 66.1405048 19.9994821 66.1405048 4.571325 59.140841 4.571325 61.2936674 0"></polygon>
            <polygon id="路径" points="107.424849 19.9994821 102.853524 19.9994821 102.853524 10.9422823 98.1392638 19.9994821 95.2826386 19.9994821 90.5683785 10.9433181 90.5683785 19.9994821 85.9970533 19.9994821 85.9970533 0 90.5730395 0 96.7109512 12.2866983 102.848863 0 107.424849 0"></polygon>
            <polygon id="路径" points="129.995088 19.9994821 119.146541 19.9994821 117.147007 15.4281571 122.846275 15.4281571 119.28119 7.37667987 113.691713 19.9994821 108.56781 19.9994821 117.424073 0 121.138825 0 129.995088 19.9994821"></polygon>
            <path d="M149.729417,19.9994821 L143.366745,19.9994821 L136.281631,12.2851446 L139.12997,7.71381962 L143.566647,7.71381962 C144.004773,7.71381962 144.376093,7.56156296 144.680606,7.25653176 C144.98512,6.95201844 145.137894,6.58069862 145.137894,6.14205443 C145.137894,5.70341024 144.98512,5.3326083 144.680606,5.0275771 C144.376093,4.72306378 144.004255,4.57080712 143.566647,4.57080712 L135.709892,4.57080712 L135.709892,19.9989642 L131.138567,19.9989642 L131.138567,0 L143.566647,0 C145.261668,0 146.70966,0.599704809 147.909587,1.80015019 C149.109515,3.00007768 149.70922,4.44755172 149.70922,6.14257231 C149.70922,7.83759289 149.110033,9.28558482 147.912694,10.4855123 C146.715356,11.6854398 145.270989,12.2856625 143.579594,12.2856625 L142.553674,12.2716797 L149.729935,20 L149.729417,19.9994821 Z" id="路径"></path>
            <polygon id="路径" points="168.746482 0 161.02334 10.7138973 161.02334 19.9994821 156.452015 19.9994821 156.452015 10.7128615 148.728873 0 154.451963 0 158.737419 5.99963748 163.022874 0 168.747 0"></polygon>
        </g>
    </g>
</svg>